<?xml version="1.0" encoding="UTF-8" standalone="no"?><svg xmlns="http://www.w3.org/2000/svg" xmlns:xlink= "http://www.w3.org/1999/xlink" width="600" height="390" aria-label="A chart." style="overflow: hidden;"><defs id="_ABSTRACT_RENDERER_ID_518"><clipPath id="_ABSTRACT_RENDERER_ID_519"><rect x="115" y="75" width="371" height="241"></rect></clipPath></defs><rect x="0" y="0" width="600" height="390" stroke="none" stroke-width="0" fill="#ffffff"></rect><g><text text-anchor="start" x="115" y="52.05" font-family="Arial" font-size="13" font-weight="bold" stroke="none" stroke-width="0" fill="#000000">Graph Title</text><rect x="115" y="41" width="371" height="13" stroke="none" stroke-width="0" fill-opacity="0" fill="#ffffff"></rect></g><g><rect x="499" y="75" width="88" height="68" stroke="none" stroke-width="0" fill-opacity="0" fill="#ffffff"></rect><g><rect x="499" y="75" width="88" height="30" stroke="none" stroke-width="0" fill-opacity="0" fill="#ffffff"></rect><g><text text-anchor="start" x="530" y="86.05" font-family="Arial" font-size="13" stroke="none" stroke-width="0" fill="#222222">Without</text><text text-anchor="start" x="530" y="103.05" font-family="Arial" font-size="13" stroke="none" stroke-width="0" fill="#222222">Cache</text></g><path d="M499,81.5L525,81.5" stroke="#3366cc" stroke-width="3" fill-opacity="1" fill="none"></path><circle cx="512" cy="81.5" r="4.5" stroke="none" stroke-width="0" fill="#3366cc"></circle></g><g><rect x="499" y="113" width="88" height="30" stroke="none" stroke-width="0" fill-opacity="0" fill="#ffffff"></rect><g><text text-anchor="start" x="530" y="124.05" font-family="Arial" font-size="13" stroke="none" stroke-width="0" fill="#222222">With</text><text text-anchor="start" x="530" y="141.05" font-family="Arial" font-size="13" stroke="none" stroke-width="0" fill="#222222">Cache</text></g><path d="M499,119.5L525,119.5" stroke="#dc3912" stroke-width="3" fill-opacity="1" fill="none"></path><circle cx="512" cy="119.5" r="4.5" stroke="none" stroke-width="0" fill="#dc3912"></circle></g></g><g><rect x="115" y="75" width="371" height="241" stroke="none" stroke-width="0" fill-opacity="0" fill="#ffffff"></rect><g clip-path="url(https://www.rapidtables.com/tools/line-graph.html#_ABSTRACT_RENDERER_ID_519)"><g><rect x="115" y="75" width="1" height="241" stroke="none" stroke-width="0" fill="#cccccc"></rect><rect x="238" y="75" width="1" height="241" stroke="none" stroke-width="0" fill="#cccccc"></rect><rect x="362" y="75" width="1" height="241" stroke="none" stroke-width="0" fill="#cccccc"></rect><rect x="485" y="75" width="1" height="241" stroke="none" stroke-width="0" fill="#cccccc"></rect><rect x="177" y="75" width="1" height="241" stroke="none" stroke-width="0" fill="#ebebeb"></rect><rect x="300" y="75" width="1" height="241" stroke="none" stroke-width="0" fill="#ebebeb"></rect><rect x="423" y="75" width="1" height="241" stroke="none" stroke-width="0" fill="#ebebeb"></rect><rect x="115" y="315" width="371" height="1" stroke="none" stroke-width="0" fill="#cccccc"></rect><rect x="115" y="235" width="371" height="1" stroke="none" stroke-width="0" fill="#cccccc"></rect><rect x="115" y="155" width="371" height="1" stroke="none" stroke-width="0" fill="#cccccc"></rect><rect x="115" y="75" width="371" height="1" stroke="none" stroke-width="0" fill="#cccccc"></rect><rect x="115" y="275" width="371" height="1" stroke="none" stroke-width="0" fill="#ebebeb"></rect><rect x="115" y="195" width="371" height="1" stroke="none" stroke-width="0" fill="#ebebeb"></rect><rect x="115" y="115" width="371" height="1" stroke="none" stroke-width="0" fill="#ebebeb"></rect></g><g><rect x="115" y="315" width="371" height="1" stroke="none" stroke-width="0" fill="#333333"></rect></g><g><path d="M115.5,93.76559999999998L238.83333333333331,93.76559999999998L362.1666666666667,93.76559999999998L485.5,93.76559999999998" stroke="#3366cc" stroke-width="3" fill-opacity="1" fill="none"></path><path d="M115.5,302.604L238.83333333333331,302.604L362.1666666666667,302.604L485.5,302.604" stroke="#dc3912" stroke-width="3" fill-opacity="1" fill="none"></path></g></g><g><circle cx="115.5" cy="93.76559999999998" r="4.5" stroke="none" stroke-width="0" fill="#3366cc"></circle><circle cx="238.83333333333331" cy="93.76559999999998" r="4.5" stroke="none" stroke-width="0" fill="#3366cc"></circle><circle cx="362.1666666666667" cy="93.76559999999998" r="4.5" stroke="none" stroke-width="0" fill="#3366cc"></circle><circle cx="485.5" cy="93.76559999999998" r="4.5" stroke="none" stroke-width="0" fill="#3366cc"></circle><circle cx="115.5" cy="302.604" r="4.5" stroke="none" stroke-width="0" fill="#dc3912"></circle><circle cx="238.83333333333331" cy="302.604" r="4.5" stroke="none" stroke-width="0" fill="#dc3912"></circle><circle cx="362.1666666666667" cy="302.604" r="4.5" stroke="none" stroke-width="0" fill="#dc3912"></circle><circle cx="485.5" cy="302.604" r="4.5" stroke="none" stroke-width="0" fill="#dc3912"></circle></g><g><g><text text-anchor="middle" x="115.5" y="335.05" font-family="Arial" font-size="13" stroke="none" stroke-width="0" fill="#444444">1</text></g><g><text text-anchor="middle" x="238.8333" y="335.05" font-family="Arial" font-size="13" stroke="none" stroke-width="0" fill="#444444">2</text></g><g><text text-anchor="middle" x="362.1667" y="335.05" font-family="Arial" font-size="13" stroke="none" stroke-width="0" fill="#444444">3</text></g><g><text text-anchor="middle" x="485.5" y="335.05" font-family="Arial" font-size="13" stroke="none" stroke-width="0" fill="#444444">4</text></g><g><text text-anchor="end" x="102" y="320.05" font-family="Arial" font-size="13" stroke="none" stroke-width="0" fill="#444444">0</text></g><g><text text-anchor="end" x="102" y="240.05" font-family="Arial" font-size="13" stroke="none" stroke-width="0" fill="#444444">50,000</text></g><g><text text-anchor="end" x="102" y="160.05" font-family="Arial" font-size="13" stroke="none" stroke-width="0" fill="#444444">100,000</text></g><g><text text-anchor="end" x="102" y="80.05" font-family="Arial" font-size="13" stroke="none" stroke-width="0" fill="#444444">150,000</text></g></g></g><g><g><text text-anchor="middle" x="300.5" y="368.05" font-family="Arial" font-size="13" font-style="italic" stroke="none" stroke-width="0" fill="#222222">hLabel</text><rect x="115" y="357" width="371" height="13" stroke="none" stroke-width="0" fill-opacity="0" fill="#ffffff"></rect></g><g><text text-anchor="middle" x="32.05" y="195.5" font-family="Arial" font-size="13" font-style="italic" transform="rotate(-90 32.05 195.5)" stroke="none" stroke-width="0" fill="#222222">vLabel</text><path d="M20.999999999999996,316L21.00000000000001,75L34.00000000000001,75L33.99999999999999,316Z" stroke="none" stroke-width="0" fill-opacity="0" fill="#ffffff"></path></g></g><g></g></svg>